<svg id="chat_1_" data-name="chat (1)" xmlns="http://www.w3.org/2000/svg" width="24.125" height="23.293" viewBox="0 0 24.125 23.293">
  <path id="Path_405" data-name="Path 405" d="M19.965,17.05v8.793a2.05,2.05,0,0,1-2.05,2.051H9.151L4.991,32.47V27.894H2.05A2.05,2.05,0,0,1,0,25.844V17.051A2.05,2.05,0,0,1,2.05,15H17.915A2.05,2.05,0,0,1,19.965,17.05Z" transform="translate(0 -9.177)" fill="#0391fd"/>
  <path id="Path_406" data-name="Path 406" d="M27.915,1H12.05A2.05,2.05,0,0,0,10,3.051V6.823H23.756a2.05,2.05,0,0,1,2.05,2.051v5.02h2.109a2.05,2.05,0,0,0,2.05-2.051V3.051A2.05,2.05,0,0,0,27.915,1Z" transform="translate(-5.841 -1)" fill="#4362a5"/>
  <circle id="Ellipse_47" data-name="Ellipse 47" cx="1.248" cy="1.248" r="1.248" transform="translate(3.328 11.23)" fill="#fff"/>
  <circle id="Ellipse_48" data-name="Ellipse 48" cx="1.248" cy="1.248" r="1.248" transform="translate(8.735 11.23)" fill="#fff"/>
  <circle id="Ellipse_49" data-name="Ellipse 49" cx="1.248" cy="1.248" r="1.248" transform="translate(14.142 11.23)" fill="#fff"/>
</svg>
