<svg xmlns="http://www.w3.org/2000/svg" xmlns:xlink="http://www.w3.org/1999/xlink" version="1.1" width="351.4682080542482" height="351.46820805424795" style="" xml:space="preserve"><rect id="backgroundrect" width="100%" height="100%" x="0" y="0" fill="none" stroke="none"/>
















<g class="currentLayer" style=""><title>Layer 1</title><g id="svg_1" class="" fill="#eb1a1a" fill-opacity="1" stroke="#919191" stroke-opacity="1">
	<path d="M336.559,68.611L231.016,174.165l105.543,105.549c15.699,15.705,15.699,41.145,0,56.85   c-7.844,7.844-18.128,11.769-28.407,11.769c-10.296,0-20.581-3.919-28.419-11.769L174.167,231.003L68.609,336.563   c-7.843,7.844-18.128,11.769-28.416,11.769c-10.285,0-20.563-3.919-28.413-11.769c-15.699-15.698-15.699-41.139,0-56.85   l105.54-105.549L11.774,68.611c-15.699-15.699-15.699-41.145,0-56.844c15.696-15.687,41.127-15.687,56.829,0l105.563,105.554   L279.721,11.767c15.705-15.687,41.139-15.687,56.832,0C352.258,27.466,352.258,52.912,336.559,68.611z" id="svg_2" fill="#eb1a1a" fill-opacity="1" stroke="#919191" stroke-opacity="1"/>
</g><g id="svg_3">
</g><g id="svg_4">
</g><g id="svg_5">
</g><g id="svg_6">
</g><g id="svg_7">
</g><g id="svg_8">
</g><g id="svg_9">
</g><g id="svg_10">
</g><g id="svg_11">
</g><g id="svg_12">
</g><g id="svg_13">
</g><g id="svg_14">
</g><g id="svg_15">
</g><g id="svg_16">
</g><g id="svg_17">
</g></g></svg>