<?xml version="1.0" encoding="utf-8"?>
<!-- Generator: Adobe Illustrator 24.0.0, SVG Export Plug-In . SVG Version: 6.00 Build 0)  -->
<svg version="1.1" id="Layer_1" xmlns="http://www.w3.org/2000/svg" xmlns:xlink="http://www.w3.org/1999/xlink" x="0px" y="0px"
	 viewBox="0 0 47.1 47.1" style="enable-background:new 0 0 47.1 47.1;" xml:space="preserve">
<style type="text/css">
	.st0{opacity:0.45;}
	.st1{fill-rule:evenodd;clip-rule:evenodd;fill:#FFFFFF;}
</style>
<g id="Group_830" transform="translate(-75.51 -75.503)" class="st0">
	<path id="Path_1135" class="st1" d="M102.9,81.1c-0.4,0-0.7,0.3-0.7,0.7v2h9v-2c0-0.4-0.3-0.7-0.7-0.7h-2v-1.8c0-1-0.8-1.8-1.8-1.7
		c-0.9,0-1.7,0.8-1.7,1.7v1.8H102.9z M119.5,107.3H94v-9.7h25.5V107.3z M117.4,105.3v-5.6h-2.1v3.4h-2.1v-3.4h-3v3.4h-2.1v-3.4h-3
		v3.4H103v-3.4h-3v3.4h-2.1v-3.4H96v5.6H117.4z M79.9,112.4V96.5H82v15.9c0.8,0.1,1.6,0.3,2.3,0.7V91.3h-6.7v21.8
		C78.3,112.7,79.1,112.5,79.9,112.4z M77.6,89.2h6.7v-2c0-1.3-1-2.3-2.3-2.3l0,0h-2.1c-1.3,0-2.3,1-2.3,2.3l0,0L77.6,89.2z
		 M78,115.1l2.9,4l2.9-4C82,114.2,79.8,114.2,78,115.1L78,115.1z M79.9,82.8H82c2.4,0,4.3,2,4.4,4.4v28.1l-5.4,7.3l-5.4-7.3V87.2
		C75.5,84.8,77.5,82.8,79.9,82.8L79.9,82.8z M113.3,82.4h5.5c2.1,0,3.8,1.7,3.8,3.8v31.3c0,2.1-1.7,3.8-3.8,3.8H94.7
		c-2.1,0-3.8-1.7-3.8-3.8V86.3c0-2.1,1.7-3.8,3.8-3.8h5.5v-0.7c0-1.5,1.2-2.7,2.7-2.8c0.3-4.7,7.3-4.7,7.6,0c1.5,0,2.7,1.3,2.7,2.8
		L113.3,82.4L113.3,82.4z M100.2,84.5h-5.5c-1,0-1.8,0.8-1.8,1.8V87h27.6v-0.7c0-1-0.8-1.8-1.8-1.8l0,0h-5.5v1.3h-13.1L100.2,84.5z
		 M92.9,114.8h27.6V89H92.9V114.8L92.9,114.8z M120.5,116.8H92.9v0.7c0,1,0.8,1.8,1.8,1.8l0,0h24.1c1,0,1.8-0.8,1.8-1.8L120.5,116.8
		z"/>
</g>
</svg>
