<svg xmlns="http://www.w3.org/2000/svg" xmlns:xlink="http://www.w3.org/1999/xlink" width="24.88" height="31.532" viewBox="0 0 24.88 31.532">
  <defs>
    <linearGradient id="linear-gradient" x1="0.292" y1="-0.838" x2="1" y2="1.781" gradientUnits="objectBoundingBox">
      <stop offset="0" stop-color="#dece00"/>
      <stop offset="1" stop-color="#ff9d00"/>
    </linearGradient>
  </defs>
  <g id="Group_965" data-name="Group 965" transform="translate(-6319.77 885)">
    <path id="Path_1276" data-name="Path 1276" d="M20.527,12.458a.217.217,0,0,1-.045.181l-1.391,1.346a2.44,2.44,0,0,0-.7,2.16l.339,1.889a.167.167,0,0,1-.079.17.17.17,0,0,1-.2.023l-1.719-.882a2.447,2.447,0,0,0-2.273,0l-1.719.9a.172.172,0,0,1-.2-.023.167.167,0,0,1-.079-.17l.328-1.889a2.414,2.414,0,0,0-.724-2.16l-1.38-1.334a.165.165,0,0,1,.1-.294L12.69,12.1a2.467,2.467,0,0,0,1.843-1.334v-.011l.859-1.719a.175.175,0,0,1,.17-.1.168.168,0,0,1,.17.1l.09.181.577,1.131.2.407a2.446,2.446,0,0,0,1.843,1.323l1.923.271a.17.17,0,0,1,.158.113Z" transform="translate(6316.635 -886.161)" fill="url(#linear-gradient)"/>
    <path id="Path_1277" data-name="Path 1277" d="M28.812,13.222a9.969,9.969,0,0,0-.17-1.165,12.446,12.446,0,0,0-24.4,0,9.97,9.97,0,0,0-.17,1.165A10.855,10.855,0,0,0,4,14.432c0,.226.011.452.011.679a11.224,11.224,0,0,0,.136,1.255,12.445,12.445,0,0,0,24.586,0,11.225,11.225,0,0,0,.136-1.255c0-.226.011-.452.011-.679a10.848,10.848,0,0,0-.068-1.208Zm-5.587,1.572a2.255,2.255,0,0,1-.305.362L21.54,16.5a.176.176,0,0,0-.057.158l.339,1.889a2.454,2.454,0,0,1-3.551,2.59l-1.719-.893a.25.25,0,0,0-.181,0l-1.719.9a2.445,2.445,0,0,1-2.59-.192,2.4,2.4,0,0,1-.973-2.375l.328-1.889a.174.174,0,0,0-.057-.147L9.971,15.212a2.484,2.484,0,0,1-.317-.385,2.41,2.41,0,0,1-.317-2.115,2.519,2.519,0,0,1,.317-.656,2.431,2.431,0,0,1,.973-.814,2.321,2.321,0,0,1,.69-.2l1.911-.283a.181.181,0,0,0,.147-.1l.271-.543L14.2,8.981l.023-.057a2.453,2.453,0,0,1,2.205-1.357,2.426,2.426,0,0,1,2.194,1.346l.034.068.565,1.131.26.52a.222.222,0,0,0,.147.1l1.923.26a2.557,2.557,0,0,1,.769.249,2.416,2.416,0,0,1,.9.78,2.554,2.554,0,0,1,.317.633A2.427,2.427,0,0,1,23.225,14.794Z" transform="translate(6315.77 -887.06)" fill="url(#linear-gradient)"/>
    <path id="Path_1278" data-name="Path 1278" d="M25.094,23.24v6.446a1.129,1.129,0,0,1-.532.961,1.169,1.169,0,0,1-1.108.057l-3.246-1.628-3.7,1.651a1.2,1.2,0,0,1-.927,0l-3.7-1.651L8.64,30.7a1.17,1.17,0,0,1-1.108-.057A1.129,1.129,0,0,1,7,29.686V23.24A14.3,14.3,0,0,0,9.262,24.7a14.679,14.679,0,0,0,13.571,0A14.3,14.3,0,0,0,25.094,23.24Z" transform="translate(6316.162 -884.287)" fill="url(#linear-gradient)"/>
  </g>
</svg>
