<?xml version="1.0" encoding="utf-8"?>
<!-- Generator: Adobe Illustrator 24.0.0, SVG Export Plug-In . SVG Version: 6.00 Build 0)  -->
<svg version="1.1" id="Layer_1" xmlns="http://www.w3.org/2000/svg" xmlns:xlink="http://www.w3.org/1999/xlink" x="0px" y="0px"
	 viewBox="0 0 61.9 75" style="enable-background:new 0 0 61.9 75;" xml:space="preserve">
<style type="text/css">
	.st0{opacity:0.45;}
	.st1{fill:#FFFFFF;}
</style>
<g id="Path_1143" transform="translate(0.25 0.26)" class="st0">
	<path class="st1" d="M58.6,74.6H5.7c-3.2,0-5.8-2.6-5.8-5.8V22c0-1.6,1.3-2.9,2.9-2.9h5.9V2.7c0-1.6,1.3-2.9,2.9-2.9h47.1
		c1.6,0,2.9,1.3,2.9,2.9v69C61.5,73.4,60.2,74.6,58.6,74.6z M10.7,71.8h47.9v-69H11.5v66.1C11.5,69.8,11.3,70.9,10.7,71.8z M2.8,22
		v46.8c0,1.6,1.3,2.9,2.9,2.9c1.6,0,2.9-1.3,2.9-2.9V22H2.8z M53.6,65.9h-0.1H16.7h-0.1v-0.1v-2.6V63h0.1h36.8h0.1v0.1v2.6V65.9z
		 M53.6,58.1h-0.1H16.7h-0.1V58v-2.6v-0.1h0.1h36.8h0.1v0.1V58V58.1z M53.6,50.3h-0.1H16.7h-0.1v-0.1v-2.6v-0.1h0.1h36.8h0.1v0.1
		v2.6V50.3z M53.6,42.6h-0.1H16.7h-0.1v-0.1v-2.6v-0.1h0.1h36.8h0.1v0.1v2.6V42.6z M53.6,34.8h-0.1H16.7h-0.1v-0.1v-2.6v-0.1h0.1
		h36.8h0.1v0.1v2.6V34.8z M53.6,27.1h-0.1h-14h-0.1v-0.1v-2.6v-0.1h0.1h14h0.1v0.1v2.6V27.1z M20.9,26.9L20.9,26.9
		c-0.4,0-0.8-0.1-1.2-0.4c-0.6-0.5-0.9-1.2-0.8-2l0.7-4.3l-3.2-3.1c-0.6-0.5-0.7-1.3-0.5-2.1c0.2-0.7,0.9-1.3,1.6-1.4l4.4-0.6
		l1.9-3.9c0.3-0.7,1-1.1,1.8-1.1c0.3,0,0.6,0.1,0.9,0.2c0.4,0.2,0.7,0.5,0.9,0.9l1.9,3.9l4.3,0.6c0.8,0.1,1.4,0.7,1.6,1.4
		c0.2,0.7,0,1.5-0.5,2.1l-3.2,3.1l0.7,4.3c0.1,0.5,0,1.1-0.3,1.5c-0.3,0.4-0.8,0.7-1.3,0.8c-0.1,0-0.2,0-0.4,0c-0.3,0-0.7-0.1-1-0.2
		l-3.9-2l-3.9,2C21.5,26.8,21.2,26.9,20.9,26.9L20.9,26.9z M25.7,21.3L25.7,21.3l3.7,2l-0.7-4.1l0-0.1l0,0l2.9-2.9l-4.1-0.6l-0.1,0
		l0-0.1l-1.8-3.7l-1.8,3.7l0,0.1l-0.1,0l-4.1,0.6l2.9,2.9l0,0l0,0.1L22,23.3L25.7,21.3L25.7,21.3z M53.6,19.3h-0.1h-14h-0.1v-0.1
		v-2.6v-0.1h0.1h14h0.1v0.1v2.6V19.3z M53.6,11.5h-0.1h-14h-0.1v-0.1V8.8V8.6h0.1h14h0.1v0.1v2.6V11.5z"/>
	<path class="st1" d="M11.5,0C10,0,8.8,1.2,8.8,2.7v16.5h-6C1.2,19.3,0,20.5,0,22v46.8c0,3.1,2.6,5.7,5.7,5.7h52.9
		c1.5,0,2.7-1.2,2.7-2.7v-69c0-1.5-1.2-2.7-2.7-2.8H11.5 M58.7,71.9H10.5c0.6-0.9,0.9-2,0.9-3.1V2.6h47.3V71.9 M5.7,71.9
		c-1.7,0-3.1-1.4-3.1-3.1V21.9h6.1v46.9C8.8,70.5,7.4,71.9,5.7,71.9 M25.7,8.1c-0.7,0-1.4,0.4-1.7,1.1l-2,4l-4.4,0.6
		c-0.7,0.1-1.3,0.6-1.5,1.3c-0.2,0.7,0,1.4,0.5,2l3.2,3.1L19,24.5c-0.1,0.7,0.2,1.4,0.8,1.9c0.3,0.2,0.7,0.4,1.1,0.4
		c0.3,0,0.6-0.1,0.9-0.2l4-2.1l3.9,2.1c0.3,0.1,0.6,0.2,0.9,0.2c0.1,0,0.2,0,0.3,0c1-0.2,1.7-1.2,1.5-2.2l-0.8-4.4l3.2-3.1
		c0.5-0.5,0.7-1.3,0.5-2c-0.2-0.7-0.8-1.2-1.5-1.3l-4.4-0.6l-2-4c-0.2-0.4-0.5-0.7-0.9-0.9C26.3,8.1,26,8.1,25.7,8.1 M29.6,23.5
		l-3.9-2l-3.9,2l0.7-4.3l-3.1-3l4.3-0.6l1.9-3.9l1.9,3.9l4.3,0.6l-3.1,3.1L29.6,23.5 M39.5,8.8v2.6h14V8.8H39.5 M39.5,16.5v2.6h14
		v-2.6H39.5 M39.5,24.3v2.6h14v-2.6H39.5 M16.7,32.1v2.6h36.8v-2.6H16.7 M16.7,39.8v2.6h36.8v-2.6H16.7 M16.7,47.6v2.6h36.8v-2.6
		H16.7 M16.7,55.4V58h36.8v-2.6H16.7 M16.7,63.1v2.6h36.8v-2.6H16.7 M11.5-0.3L11.5-0.3L11.5-0.3h47.1c1.7,0,3,1.4,3,3v69
		c0,1.6-1.3,3-3,3H5.7c-3.3,0-5.9-2.7-5.9-5.9V22c0-1.7,1.3-3,3-3h5.8V2.7C8.5,1.1,9.9-0.3,11.5-0.3z M58.5,2.9H11.6v65.9
		c0,1-0.2,2-0.7,2.8h47.5V2.9z M8.5,22.2H2.9v46.7c0,1.6,1.3,2.8,2.8,2.8c1.6,0,2.8-1.3,2.8-2.8V22.2z M25.7,7.8
		c0.3,0,0.7,0.1,1,0.2c0.4,0.2,0.8,0.6,1,1l1.9,3.9l4.3,0.6c0.8,0.1,1.5,0.7,1.7,1.5c0.2,0.8,0,1.6-0.5,2.2l-3.1,3l0.7,4.3
		c0.1,0.6,0,1.1-0.4,1.6c-0.3,0.5-0.8,0.8-1.4,0.9c-0.1,0-0.2,0-0.4,0c-0.4,0-0.7-0.1-1-0.3l-3.8-2l-3.8,2c-0.3,0.2-0.7,0.3-1,0.3
		c-0.5,0-0.9-0.1-1.3-0.4c-0.7-0.5-1-1.3-0.9-2.1l0.7-4.3l-3.1-3c-0.6-0.6-0.8-1.4-0.5-2.2c0.3-0.8,0.9-1.3,1.7-1.5l4.3-0.6L23.8,9
		C24.1,8.3,24.9,7.8,25.7,7.8z M31.4,16.3l-3.8-0.6l-0.1,0l-0.1-0.1l-1.7-3.5L24,15.6l-0.1,0.1l-0.1,0L20,16.3l2.8,2.7l0.1,0.1
		l0,0.1L22.2,23l3.4-1.8l0.1-0.1l0.1,0.1l3.4,1.8l-0.7-3.8l0-0.1l0.1-0.1L31.4,16.3z M39.2,8.5h0.3h14h0.3v0.3v2.6v0.3h-0.3h-14
		h-0.3v-0.3V8.8V8.5z M39.2,16.3h0.3h14h0.3v0.3v2.6v0.3h-0.3h-14h-0.3v-0.3v-2.6V16.3z M39.2,24.1h0.3h14h0.3v0.3v2.6v0.3h-0.3h-14
		h-0.3v-0.3v-2.6V24.1z M16.4,31.8h0.3h36.8h0.3v0.3v2.6v0.3h-0.3H16.7h-0.3v-0.3v-2.6V31.8z M16.4,39.6h0.3h36.8h0.3v0.3v2.6v0.3
		h-0.3H16.7h-0.3v-0.3v-2.6V39.6z M16.4,47.3h0.3h36.8h0.3v0.3v2.6v0.3h-0.3H16.7h-0.3v-0.3v-2.6V47.3z M16.4,55.1h0.3h36.8h0.3v0.3
		V58v0.3h-0.3H16.7h-0.3V58v-2.6V55.1z M16.4,62.9h0.3h36.8h0.3v0.3v2.6V66h-0.3H16.7h-0.3v-0.3v-2.6V62.9z"/>
</g>
</svg>
