<svg xmlns="http://www.w3.org/2000/svg" xmlns:xlink="http://www.w3.org/1999/xlink" width="685.5" height="89.292" viewBox="0 0 685.5 89.292">
  <defs>
    <filter id="Union_1" x="0" y="0.017" width="241.246" height="89" filterUnits="userSpaceOnUse">
      <feOffset dx="1" dy="3" input="SourceAlpha"/>
      <feGaussianBlur result="blur"/>
      <feFlood flood-opacity="0.043"/>
      <feComposite operator="in" in2="blur"/>
      <feComposite in="SourceGraphic"/>
    </filter>
    <filter id="Subtraction_2" x="443.938" y="0" width="241.562" height="89.292" filterUnits="userSpaceOnUse">
      <feOffset dx="1" dy="3" input="SourceAlpha"/>
      <feGaussianBlur result="blur-2"/>
      <feFlood flood-opacity="0.043"/>
      <feComposite operator="in" in2="blur-2"/>
      <feComposite in="SourceGraphic"/>
    </filter>
    <filter id="Union_2" x="221.912" y="0" width="241.562" height="89.018" filterUnits="userSpaceOnUse">
      <feOffset dx="1" dy="3" input="SourceAlpha"/>
      <feGaussianBlur result="blur-3"/>
      <feFlood flood-opacity="0.043"/>
      <feComposite operator="in" in2="blur-3"/>
      <feComposite in="SourceGraphic"/>
    </filter>
  </defs>
  <g id="Group_974" data-name="Group 974" transform="translate(-1139 -593.983)">
    <g transform="matrix(1, 0, 0, 1, 1139, 593.98)" filter="url(#Union_1)">
      <path id="Union_1-2" data-name="Union 1" d="M0,86V0H240.246L228,41.286l6.263,5.214L223.9,55.132,214.747,86Z" transform="translate(0 0.02)" fill="#607d8c"/>
    </g>
    <g transform="matrix(1, 0, 0, 1, 1139, 593.98)" filter="url(#Subtraction_2)">
      <path id="Subtraction_2-2" data-name="Subtraction 2" d="M240.562,86.292h0L0,86.016,8.164,58.5l14.4-11.988L13.87,39.279,25.526,0,240.562.016V86.291Z" transform="translate(443.94)" fill="#00bad6"/>
    </g>
    <g transform="matrix(1, 0, 0, 1, 1139, 593.98)" filter="url(#Union_2)">
      <path id="Union_2-2" data-name="Union 2" d="M215.063,86.017H0L8.164,58.5l14.4-11.988L13.87,39.279,25.526,0,240.562.016,228.519,40.635l7.065,5.882-11.7,9.738-8.824,29.763h0Z" transform="translate(221.91)" fill="#9982fd"/>
    </g>
    <text id="Select_Topic" data-name="Select Topic" transform="translate(1242 640)" fill="#fff" font-size="14" font-family="OpenSans-Semibold, Open Sans" font-weight="600"><tspan x="0" y="0">Select Topic</tspan></text>
    <text id="STEP_1" data-name="STEP 1" transform="translate(1164 619)" fill="#fff" font-size="14" font-family="OpenSans-Semibold, Open Sans" font-weight="600"><tspan x="0" y="0">STEP 1</tspan></text>
    <text id="STEP_2" data-name="STEP 2" transform="translate(1403 619)" fill="#fff" font-size="14" font-family="OpenSans-Semibold, Open Sans" font-weight="600"><tspan x="0" y="0">STEP 2</tspan></text>
    <text id="STEP_3" data-name="STEP 3" transform="translate(1623 619)" fill="#fff" font-size="14" font-family="OpenSans-Semibold, Open Sans" font-weight="600"><tspan x="0" y="0">STEP 3</tspan></text>
    <text id="Write_Your_idea" data-name="Write Your idea" transform="translate(1459 627)" fill="#fff" font-size="14" font-family="OpenSans-Semibold, Open Sans" font-weight="600"><tspan x="0" y="15">Write Your idea</tspan></text>
    <text id="Submit_idea" data-name="Submit idea" transform="translate(1703 642)" fill="#fff" font-size="14" font-family="OpenSans-Semibold, Open Sans" font-weight="600"><tspan x="0" y="0">Submit idea</tspan></text>
    <g id="Group_626" data-name="Group 626" transform="translate(254 148)" opacity="0.351">
      <path id="Path_858" data-name="Path 858" d="M918.146,490h-7.805a.341.341,0,0,0-.341.341v7.805a.341.341,0,0,0,.341.341h7.805a.341.341,0,0,0,.341-.341v-7.805A.341.341,0,0,0,918.146,490Zm-1.215,7.073h-5.376a.141.141,0,0,1-.141-.141v-5.376a.141.141,0,0,1,.141-.141h5.376a.141.141,0,0,1,.141.141v5.376A.141.141,0,0,1,916.932,497.073ZM910.4,518.291h7.693a.4.4,0,0,0,.4-.4V510.2a.4.4,0,0,0-.4-.4H910.4a.4.4,0,0,0-.4.4v7.693A.4.4,0,0,0,910.4,518.291Zm1.19-7.073H916.9a.172.172,0,0,1,.173.173V516.7a.172.172,0,0,1-.173.173h-5.313a.173.173,0,0,1-.173-.173V511.39A.173.173,0,0,1,911.587,511.218Zm26.7-17.682h0a.707.707,0,0,1-.707.707h-15.56a.707.707,0,0,1-.707-.707h0a.707.707,0,0,1,.707-.707h15.56A.707.707,0,0,1,938.291,493.536Zm-6.365,3.536h-9.9a.707.707,0,0,1-.707-.707h0a.707.707,0,0,1,.707-.707h9.9a.707.707,0,0,1,.707.707h0A.707.707,0,0,1,931.925,497.073Zm-9.9,5.658h15.56a.707.707,0,0,1,.707.707h0a.707.707,0,0,1-.707.707h-15.56a.707.707,0,0,1-.707-.707h0A.707.707,0,0,1,922.023,502.731Zm9.9,4.244h-9.9a.707.707,0,0,1-.707-.707h0a.707.707,0,0,1,.707-.707h9.9a.707.707,0,0,1,.707.707h0A.707.707,0,0,1,931.925,506.974Zm-9.9,5.658h15.56a.707.707,0,0,1,.707.707h0a.707.707,0,0,1-.707.707h-15.56a.707.707,0,0,1-.707-.707h0A.707.707,0,0,1,922.023,512.632Zm0,2.829h9.9a.707.707,0,0,1,.707.707h0a.707.707,0,0,1-.707.707h-9.9a.707.707,0,0,1-.707-.707h0A.707.707,0,0,1,922.023,515.461Zm-2.546-14.712-.99.743v-1.26a.331.331,0,0,0-.331-.331h-7.825a.331.331,0,0,0-.331.331v7.825a.331.331,0,0,0,.331.331h7.825a.331.331,0,0,0,.331-.331v-4.8l1.839-1.379Zm-2.522,6.224h-5.424a.117.117,0,0,1-.117-.117v-5.424a.117.117,0,0,1,.117-.117h5.424a.117.117,0,0,1,.117.117v1.121l-2.763,2.072-.981-.981-1,1,1.848,1.848,2.9-2.171v2.535A.117.117,0,0,1,916.956,506.974Z" fill="#fff"/>
    </g>
    <g id="Group_627" data-name="Group 627" transform="translate(617 145)" opacity="0.4">
      <path id="Path_859" data-name="Path 859" d="M802.865,570.4h9.085a.8.8,0,0,1,.8.8h0a.8.8,0,0,1-.8.8h-9.085a.8.8,0,0,1-.8-.8h0A.8.8,0,0,1,802.865,570.4Z" transform="translate(-10.986 -54.989)" fill="#fff"/>
      <path id="Path_860" data-name="Path 860" d="M802.865,558.565h3.741a.8.8,0,0,1,.8.8h0a.8.8,0,0,1-.8.8h-3.741a.8.8,0,0,1-.8-.8h0A.8.8,0,0,1,802.865,558.565Z" transform="translate(-10.986 -46.894)" fill="#fff"/>
      <path id="Path_861" data-name="Path 861" d="M825.579,509.726a2.211,2.211,0,0,1-1.56-.663,2.138,2.138,0,0,1-.567-2.138l.866-2.875a3.207,3.207,0,0,1,.8-1.347l12.035-12.024a2.309,2.309,0,0,1,3.265-.006l.005.006,1.945,1.945a2.415,2.415,0,0,1,.716,1.614,2.137,2.137,0,0,1-.631,1.646L830.4,507.973a3.2,3.2,0,0,1-1.347.8l-2.875.866A2.144,2.144,0,0,1,825.579,509.726Zm13.147-18.17a.589.589,0,0,0-.428.171l-12.046,12.089a1.605,1.605,0,0,0-.4.674l-.866,2.875a.587.587,0,0,0,.171.566.577.577,0,0,0,.566.171l2.875-.866a1.6,1.6,0,0,0,.673-.4l12.035-12.057a.6.6,0,0,0,.171-.449.812.812,0,0,0-.267-.545l-1.924-1.945a.823.823,0,0,0-.577-.246Z" transform="translate(-25.556 0)" fill="#fff"/>
      <rect id="Rectangle_147" data-name="Rectangle 147" width="1.603" height="5.879" transform="translate(808.767 494.594) rotate(-45)" fill="#fff"/>
      <path id="Path_862" data-name="Path 862" d="M787.6,510.354v-3.677a2.138,2.138,0,0,1,2.138-2.138h11.223a.8.8,0,0,0,0-1.6H789.794A3.794,3.794,0,0,0,786,506.677v3.677a.8.8,0,0,0,.8.8h0A.8.8,0,0,0,787.6,510.354Z" transform="translate(0 -8.847)" fill="#fff"/>
      <path id="Path_863" data-name="Path 863" d="M812.454,539.12a.8.8,0,0,0-.8.8v11.169a2.138,2.138,0,0,1-2.138,2.138h-19.72a2.138,2.138,0,0,1-2.138-2.138V548.2a.8.8,0,0,0-.8-.8l-.055,0h0a.8.8,0,0,0-.8.8v2.886a3.794,3.794,0,0,0,3.794,3.794h19.667a3.794,3.794,0,0,0,3.794-3.794V539.922A.8.8,0,0,0,812.454,539.12Z" transform="translate(0 -33.595)" fill="#fff"/>
      <path id="Path_864" data-name="Path 864" d="M786.8,542.231h0a.8.8,0,0,1,.8.8v3a.8.8,0,0,1-.8.8h0a.8.8,0,0,1-.8-.8v-3A.8.8,0,0,1,786.8,542.231Z" transform="translate(0 -35.723)" fill="#fff"/>
    </g>
    <g id="Group_628" data-name="Group 628" transform="translate(952 146)" opacity="0.4">
      <path id="Path_865" data-name="Path 865" d="M671,499.154v24.538a2.122,2.122,0,0,0,2.115,2.115h24.538a2.122,2.122,0,0,0,2.116-2.115V504.907a.846.846,0,1,0-1.693,0v18.785a.424.424,0,0,1-.423.423H673.115a.424.424,0,0,1-.423-.423V499.154a.424.424,0,0,1,.423-.423h18.615a.846.846,0,0,0,0-1.693H673.115A2.15,2.15,0,0,0,671,499.154Z" transform="translate(0 -5.517)" fill="#fff"/>
      <path id="Path_866" data-name="Path 866" d="M715.645,489.194a.821.821,0,0,0-1.185.127l-15.485,18.658a.366.366,0,0,1-.3.169.569.569,0,0,1-.339-.085l-4.738-4.146a.84.84,0,0,0-1.1,1.269l4.781,4.1a2.1,2.1,0,0,0,1.4.507h.169a2.024,2.024,0,0,0,1.438-.761l15.485-18.7A.777.777,0,0,0,715.645,489.194Z" transform="translate(-14.564)" fill="#fff"/>
    </g>
  </g>
</svg>
