<?xml version="1.0" encoding="utf-8"?>
<!-- Generator: Adobe Illustrator 24.0.0, SVG Export Plug-In . SVG Version: 6.00 Build 0)  -->
<svg version="1.1" id="Layer_1" xmlns="http://www.w3.org/2000/svg" xmlns:xlink="http://www.w3.org/1999/xlink" x="0px" y="0px"
	 viewBox="0 0 512 512" style="enable-background:new 0 0 512 512;" xml:space="preserve">
<style type="text/css">
	.st0{fill:#FFD15C;}
	.st1{fill:#FFFFFF;}
	.st2{fill:#344A5E;}
	.st3{fill:#415A6B;}
</style>
<path class="st0" d="M314.7,391.5c6.4-21.3,19.2-40.5,36.3-55.5c32-26.7,52.3-67.2,52.3-112c0-83.2-69.3-151.5-154.7-147.2
	C172.8,80,110.9,144,108.8,219.7c-1.1,46.9,19.2,88.5,52.3,116.3c18.1,14.9,30.9,34.1,37.3,55.5H314.7L314.7,391.5z"/>
<path class="st1" d="M242.1,393.6h9.6l-42.7-158.9c1.1,0,2.1,0,3.2,0c5.3,0,10.7-2.1,14.9-6.4c2.1-2.1,4.3-3.2,7.5-3.2
	s5.3,1.1,7.5,3.2c7.5,8.5,20.3,8.5,27.7,0c2.1-2.1,4.3-3.2,7.5-3.2c2.1,0,5.3,1.1,7.5,3.2c4.3,4.3,8.5,6.4,14.9,6.4
	c1.1,0,2.1,0,3.2,0l-41.6,158.9h9.6l43.7-166.4c0-2.1,0-4.3-2.1-5.3c-2.1-1.1-4.3,0-5.3,1.1c-2.1,2.1-4.3,3.2-6.4,3.2
	c-3.2,0-5.3-1.1-8.5-3.2c-4.3-4.3-8.5-6.4-13.9-6.4s-9.6,2.1-13.9,6.4s-10.7,4.3-14.9,0c-3.2-4.3-8.5-6.4-13.9-6.4l0,0
	c-5.3,0-10.7,2.1-13.9,6.4c-2.1,2.1-5.3,3.2-8.5,3.2c-2.1,0-5.3-1.1-6.4-3.2c-1.1-1.1-3.2-2.1-5.3-1.1c-2.1,1.1-3.2,3.2-2.1,5.3
	L242.1,393.6z"/>
<g>
	<path class="st2" d="M222.9,489.6c5.3,12.8,18.1,22.4,33.1,22.4c14.9,0,27.7-9.6,33.1-22.4H222.9z"/>
	<path class="st2" d="M295.5,490.7h-77.9c-10.7,0-19.2-8.5-19.2-19.2v-81.1h116.3v81.1C314.7,482.1,306.1,490.7,295.5,490.7z"/>
</g>
<g>
	<path class="st3" d="M313.6,430.9H198.4c-6.4,0-11.7-5.3-11.7-11.7l0,0c0-6.4,5.3-11.7,11.7-11.7h115.2c6.4,0,11.7,5.3,11.7,11.7
		l0,0C325.3,425.6,320,430.9,313.6,430.9z"/>
	<path class="st3" d="M313.6,468.3H198.4c-6.4,0-11.7-5.3-11.7-11.7l0,0c0-6.4,5.3-11.7,11.7-11.7h115.2c6.4,0,11.7,5.3,11.7,11.7
		l0,0C325.3,462.9,320,468.3,313.6,468.3z"/>
</g>
<g>
	<path class="st1" d="M256,0c-5.3,0-10.7,4.3-10.7,10.7v36.3c0,5.3,4.3,10.7,10.7,10.7s10.7-4.3,10.7-10.7V10.7
		C266.7,4.3,261.3,0,256,0z"/>
	<path class="st1" d="M113.1,65.1c-4.3-4.3-10.7-4.3-14.9,0s-4.3,10.7,0,14.9l25.6,25.6c4.3,4.3,10.7,4.3,14.9,0s4.3-10.7,0-14.9
		L113.1,65.1z"/>
	<path class="st1" d="M80,212.3H43.7c-5.3,0-10.7,4.3-10.7,10.7l0,0c0,5.3,4.3,10.7,10.7,10.7H80c5.3,0,10.7-4.3,10.7-10.7l0,0
		C90.7,217.6,85.3,212.3,80,212.3z"/>
	<path class="st1" d="M123.7,340.3l-25.6,25.6c-4.3,4.3-4.3,10.7,0,14.9s10.7,4.3,14.9,0l25.6-25.6c4.3-4.3,4.3-10.7,0-14.9
		S128,336,123.7,340.3z"/>
	<path class="st1" d="M388.3,340.3c-4.3-4.3-10.7-4.3-14.9,0s-4.3,10.7,0,14.9l25.6,25.6c4.3,4.3,10.7,4.3,14.9,0s4.3-10.7,0-14.9
		L388.3,340.3z"/>
	<path class="st1" d="M468.3,212.3H432c-5.3,0-10.7,4.3-10.7,10.7l0,0c0,5.3,4.3,10.7,10.7,10.7h36.3c5.3,0,10.7-4.3,10.7-10.7l0,0
		C478.9,217.6,474.7,212.3,468.3,212.3z"/>
	<path class="st1" d="M398.9,65.1l-25.6,25.6c-4.3,4.3-4.3,10.7,0,14.9c4.3,4.3,10.7,4.3,14.9,0L413.9,80c4.3-4.3,4.3-10.7,0-14.9
		S403.2,60.8,398.9,65.1z"/>
</g>
</svg>
