<svg xmlns="http://www.w3.org/2000/svg" width="26.78" height="23.43"><rect id="backgroundrect" width="100%" height="100%" x="0" y="0" fill="none" stroke="none"/>
  
<g class="currentLayer" style=""><title>Layer 1</title><g id="Group_308" data-name="Group 308" class="selected" fill="#919191" fill-opacity="1">
    <g id="Group_307" data-name="Group 307" fill="#919191" fill-opacity="1">
      <path id="Path_346" data-name="Path 346" d="M26.780000274658207,10.458003540039059 a2.55,2.55 0 0 0 -2.547,-2.547 H19.6160002746582 a8.091,8.091 0 0 0 1.1,-4.2 v-0.273 h0 a3.435,3.435 0 0 0 -3.3810000000000002,-3.434 h-0.026000000000000006 a1.745,1.745 0 0 0 -1.719,1.57 c-0.3440000000000001,4.1530000000000005 -4.346,6.293 -7.023,7.595 v-0.43000000000000005 a0.8130000000000001,0.8130000000000001 0 0 0 -0.8130000000000001,-0.8130000000000001 H0.8130002746582026 a0.8130000000000001,0.8130000000000001 0 0 0 -0.8130000000000001,0.8130000000000001 v13.873 a0.8130000000000001,0.8130000000000001 0 0 0 0.8130000000000001,0.8130000000000001 h5.2 a2.549,2.549 0 0 0 2.279,-1.411 a19.3,19.3 0 0 0 8.3,1.421 c0.49300000000000005,0 1,0 1.517,-0.010000000000000002 c0.5740000000000001,-0.005000000000000001 1.167,-0.011000000000000003 1.7890000000000001,-0.011000000000000003 h2.5700000000000003 A2.5460000000000003,2.5460000000000003 0 0 0 24.662000274658205,19.568003540039058 a2.545,2.545 0 0 0 0.8670000000000001,-3.468 a2.544,2.544 0 0 0 0.553,-3.8920000000000003 A2.5380000000000003,2.5380000000000003 0 0 0 26.780000274658207,10.458003540039059 zM6.936000274658204,20.873003540039065 a0.922,0.922 0 0 1 -0.921,0.921 h-0.921 V19.139003540039056 a0.8130000000000001,0.8130000000000001 0 0 0 -1.6260000000000001,0 v2.6550000000000002 H1.6260002746582032 V9.548003540039062 h5.311 V20.873003540039065 zm15.563,-7.868 h1.7000000000000002 a0.921,0.921 0 1 1 0,1.842 h-1.7000000000000002 a0.8130000000000001,0.8130000000000001 0 0 0 0,1.6260000000000001 h0.8360000000000001 a0.921,0.921 0 0 1 0,1.842 h-0.8670000000000001 a0.8130000000000001,0.8130000000000001 0 0 0 0,1.6260000000000001 a0.921,0.921 0 1 1 0,1.842 h-2.5700000000000003 c-0.6300000000000001,0 -1.227,0.006000000000000002 -1.8,0.011000000000000003 c-3.623,0.03400000000000001 -6.286,0.06000000000000001 -9.521,-1.443 V10.965003540039064 h0 l0.26,-0.125 a22.971,22.971 0 0 0 5.012,-3.027 a8.861,8.861 0 0 0 3.36,-6.108 a0.12000000000000001,0.12000000000000001 0 0 1 0.1,-0.07800000000000001 h0 a1.818,1.818 0 0 1 1.7810000000000001,1.81 v0.272 a7.014,7.014 0 0 1 -1.362,4.2 H16.4300002746582 a0.8130000000000001,0.8130000000000001 0 1 0 0,1.6260000000000001 h7.8 a0.921,0.921 0 1 1 0,1.842 H22.499000274658204 a0.8130000000000001,0.8130000000000001 0 0 0 0,1.6260000000000001 z" fill="#919191" fill-opacity="1"/>
    </g>
  </g></g></svg>