<?xml version="1.0" encoding="utf-8"?>
<!-- Generator: Adobe Illustrator 24.0.0, SVG Export Plug-In . SVG Version: 6.00 Build 0)  -->
<svg version="1.1" id="like" xmlns="http://www.w3.org/2000/svg" xmlns:xlink="http://www.w3.org/1999/xlink" x="0px" y="0px"
	 viewBox="0 0 26.8 23.4" style="enable-background:new 0 0 26.8 23.4;" xml:space="preserve">
<style type="text/css">
	.st0{fill:#00C3FF;}
</style>
<g>
	<path class="st0" d="M25.6,13.6c0.2,0.2,0.5,0.7,0.5,1.3c0,0.8-0.6,1.4-0.9,1.6c-0.1,0.1-0.1,0.2,0,0.2c0.2,0.2,0.4,0.6,0.4,1.2
		c0,0.7-0.6,1.4-1,1.7c-0.1,0.1-0.2,0.2-0.1,0.4c0.2,0.2,0.3,0.7,0.3,1.3c0,1-1,1.9-2,1.9H10.8c-0.1,0-0.3,0-0.4-0.1l-1.1-0.5
		c-0.2-0.1-0.3-0.3-0.3-0.5V12c0-0.2,0.1-0.4,0.2-0.5l0.4-0.3c0,0,0.1-0.1,0.1-0.1c0.4-0.5,3.2-3.9,3.9-6c0-0.1,0-0.2,0-0.2V1.4
		c0-0.4,0.2-0.7,0.5-0.9c0.5-0.4,1.5-0.8,2.6-0.2c0.1,0.1,0.2,0.2,0.3,0.3c0.3,0.4,1,1.7,1.4,3.3c0.1,0.4,0.1,0.9,0,1.3l-0.7,4
		c0,0.1,0.1,0.2,0.1,0.2h7c0.8,0,1.5,0.6,1.7,1.4c0,0.2,0.1,0.4,0.1,0.6c0,1.1-0.6,1.6-1,1.8C25.5,13.3,25.5,13.5,25.6,13.6z"/>
</g>
<g>
	<path class="st0" d="M7.4,10.8H0.9c-0.5,0-0.9,0.4-0.9,0.9v10.8c0,0.5,0.4,0.9,0.9,0.9h6.6c0.5,0,0.9-0.4,0.9-0.9V11.7
		C8.3,11.2,7.9,10.8,7.4,10.8z M4.1,22c-0.6,0-1-0.4-1-0.9c0-0.5,0.5-0.9,1-0.9s1,0.4,1,0.9C5.2,21.6,4.7,22,4.1,22z"/>
</g>
</svg>
