<?xml version="1.0" encoding="utf-8"?>
<!-- Generator: Adobe Illustrator 24.0.0, SVG Export Plug-In . SVG Version: 6.00 Build 0)  -->
<svg version="1.1" id="like" xmlns="http://www.w3.org/2000/svg" xmlns:xlink="http://www.w3.org/1999/xlink" x="0px" y="0px"
	 viewBox="0 0 26.8 23.4" style="enable-background:new 0 0 26.8 23.4;" xml:space="preserve">
<style type="text/css">
	.st0{fill:#727272;}
</style>
<path class="st0" d="M15.6,1.2c0.2,0,0.4,0,0.6,0.1c0.2,0.4,0.9,1.5,1.2,2.9c0.1,0.3,0.1,0.6,0,0.8l-0.7,4c-0.1,0.4,0,0.8,0.3,1.1
	c0.3,0.3,0.6,0.5,1,0.5h7c0.3,0,0.5,0.2,0.6,0.4c0,0.1,0,0.2,0,0.3c0,0.4-0.1,0.6-0.4,0.8c-0.4,0.2-0.7,0.6-0.8,1
	c-0.1,0.5,0.1,0.9,0.4,1.2c0.2,0.2,0.2,0.3,0.2,0.4c0,0.2-0.2,0.5-0.4,0.7c-0.3,0.2-0.5,0.6-0.5,0.9c0,0.4,0.1,0.7,0.3,1
	c0.1,0.1,0.1,0.2,0.1,0.4c0,0.2-0.3,0.6-0.4,0.7c-0.7,0.4-0.8,1.3-0.4,2c0.1,0.1,0.2,0.4,0.2,0.7c0,0.3-0.5,0.7-0.9,0.7H10.9
	l-0.7-0.3v-9.4l0.1-0.1l0,0l0,0c0.1-0.1,0.2-0.2,0.3-0.3c0.8-0.9,3.4-4.2,4.1-6.4l0,0l0,0c0.1-0.2,0.1-0.4,0.1-0.6V1.5
	C15.1,1.3,15.4,1.2,15.6,1.2 M15.6,0c-0.6,0-1.1,0.3-1.5,0.5c-0.3,0.2-0.5,0.6-0.5,0.9v3.4c0,0.1,0,0.2,0,0.2
	c-0.6,2.1-3.4,5.5-3.9,6c0,0-0.1,0.1-0.1,0.1l-0.4,0.3c-0.1,0.1-0.2,0.3-0.2,0.5v10c0,0.2,0.1,0.4,0.3,0.5l1.1,0.5
	c0.1,0.1,0.2,0.1,0.4,0.1H23c1,0,2-0.8,2-1.9c0-0.6-0.2-1.1-0.3-1.3c-0.1-0.1,0-0.3,0.1-0.4c0.4-0.3,1-0.9,1-1.7
	c0-0.6-0.3-1-0.4-1.2c-0.1-0.1-0.1-0.2,0-0.2c0.3-0.2,0.9-0.8,0.9-1.6c0-0.6-0.3-1-0.5-1.3c-0.1-0.1-0.1-0.3,0.1-0.4
	c0.4-0.2,1-0.7,1-1.8c0-0.2,0-0.4-0.1-0.6C26.5,10,25.8,9.5,25,9.5h-7c-0.1,0-0.2-0.1-0.1-0.2l0.7-4c0.1-0.4,0.1-0.9,0-1.3
	c-0.4-1.6-1.1-2.9-1.4-3.3c-0.1-0.1-0.2-0.2-0.3-0.3C16.4,0.1,16,0,15.6,0L15.6,0z"/>
<path class="st0" d="M7.1,12v10.2H1.2V12H7.1 M7.4,10.9H0.9c-0.5,0-0.9,0.4-0.9,0.9v10.9c0,0.5,0.4,0.9,0.9,0.9h6.6
	c0.5,0,0.9-0.4,0.9-0.9V11.7C8.3,11.2,7.9,10.9,7.4,10.9L7.4,10.9z"/>
<g>
	<path class="st0" d="M4.1,22c-0.6,0-1-0.4-1-0.9c0-0.5,0.5-0.9,1-0.9s1,0.4,1,0.9C5.2,21.6,4.7,22,4.1,22z"/>
</g>
</svg>
