<svg id="like" xmlns="http://www.w3.org/2000/svg" width="26.78" height="23.43" viewBox="0 0 26.78 23.43">
  <g id="Group_308" data-name="Group 308">
    <g id="Group_307" data-name="Group 307" transform="translate(0)">
      <path id="Path_346" data-name="Path 346" d="M35.218,89.27a2.55,2.55,0,0,0-2.547-2.547H28.054a8.091,8.091,0,0,0,1.1-4.2v-.273h0a3.435,3.435,0,0,0-3.381-3.434h-.026a1.745,1.745,0,0,0-1.719,1.57c-.344,4.153-4.346,6.293-7.023,7.595v-.43a.813.813,0,0,0-.813-.813H9.251a.813.813,0,0,0-.813.813v13.873a.813.813,0,0,0,.813.813h5.2a2.549,2.549,0,0,0,2.279-1.411,19.3,19.3,0,0,0,8.3,1.421c.493,0,1,0,1.517-.01.574-.005,1.167-.011,1.789-.011h2.57A2.546,2.546,0,0,0,33.1,98.38a2.545,2.545,0,0,0,.867-3.468,2.544,2.544,0,0,0,.553-3.892A2.538,2.538,0,0,0,35.218,89.27ZM15.374,99.685a.922.922,0,0,1-.921.921h-.921V97.951a.813.813,0,0,0-1.626,0v2.655H10.064V88.36h5.311V99.685Zm15.563-7.868h1.7a.921.921,0,1,1,0,1.842h-1.7a.813.813,0,0,0,0,1.626h.836a.921.921,0,0,1,0,1.842h-.867a.813.813,0,0,0,0,1.626.921.921,0,1,1,0,1.842h-2.57c-.63,0-1.227.006-1.8.011-3.623.034-6.286.06-9.521-1.443V89.777h0l.26-.125a22.971,22.971,0,0,0,5.012-3.027,8.861,8.861,0,0,0,3.36-6.108.12.12,0,0,1,.1-.078h0a1.818,1.818,0,0,1,1.781,1.81v.272a7.014,7.014,0,0,1-1.362,4.2H24.868a.813.813,0,1,0,0,1.626h7.8a.921.921,0,1,1,0,1.842H30.937a.813.813,0,0,0,0,1.626Z" transform="translate(-8.438 -78.812)" fill="#00baff"/>
    </g>
  </g>
</svg>
