<?xml version="1.0" encoding="utf-8"?>
<!-- Generator: Adobe Illustrator 24.0.0, SVG Export Plug-In . SVG Version: 6.00 Build 0)  -->
<svg version="1.1" id="Layer_1" xmlns="http://www.w3.org/2000/svg" xmlns:xlink="http://www.w3.org/1999/xlink" x="0px" y="0px"
	 viewBox="0 0 160 260" style="enable-background:new 0 0 160 260;" xml:space="preserve">
<style type="text/css">
	.st0{fill:#1B1464;}
	.st1{fill:#2E3192;}
	.st2{fill:#FFC20E;}
</style>
<g>
	<g>
		<path class="st0" d="M10.03,252.5c-0.85,0-1.56-0.26-2.13-0.77c-0.57-0.51-0.86-1.1-0.86-1.77v-37.87c0-0.66,0.27-1.26,0.8-1.79
			c0.53-0.53,1.24-0.8,2.13-0.8h2.98c0.88,0,1.61,0.27,2.18,0.8c0.57,0.53,0.86,1.13,0.86,1.79v37.87c0,0.66-0.28,1.25-0.83,1.77
			c-0.55,0.52-1.27,0.77-2.15,0.77H10.03z"/>
		<path class="st0" d="M25.43,237.93c-0.88,0-1.6-0.27-2.15-0.8c-0.55-0.53-0.83-1.13-0.83-1.79v-2.59c0-0.66,0.28-1.26,0.83-1.79
			c0.55-0.53,1.27-0.8,2.15-0.8h15.51c0.88,0,1.6,0.27,2.15,0.8c0.55,0.53,0.83,1.13,0.83,1.79v2.59c0,0.66-0.28,1.26-0.83,1.79
			c-0.55,0.53-1.27,0.8-2.15,0.8H25.43z"/>
		<path class="st0" d="M53.36,252.5c-0.85,0-1.56-0.26-2.13-0.77c-0.57-0.51-0.86-1.1-0.86-1.77v-37.87c0-0.66,0.27-1.26,0.8-1.79
			c0.53-0.53,1.24-0.8,2.13-0.8h2.98c0.88,0,1.61,0.27,2.18,0.8c0.57,0.53,0.86,1.13,0.86,1.79v32.79h12.14
			c0.88,0,1.6,0.26,2.15,0.77c0.55,0.52,0.83,1.1,0.83,1.77v2.54c0,0.66-0.28,1.25-0.83,1.77c-0.55,0.52-1.25,0.77-2.1,0.77H53.36z"
			/>
		<path class="st0" d="M99.79,211.37c0.22,0.44,0.52,1.14,0.88,2.1l1.99,4.64l9.77,22.85l1.99,4.64c1.1,2.76,1.66,4.27,1.66,4.53
			c0,0.66-0.27,1.22-0.8,1.68c-0.53,0.46-1.22,0.69-2.07,0.69h-3.04c-0.63,0-1.21-0.17-1.74-0.5c-0.53-0.33-0.91-0.74-1.13-1.21
			l-4.58-10.82H87.75l-4.58,10.82c-0.22,0.52-0.6,0.93-1.13,1.24c-0.53,0.31-1.13,0.47-1.79,0.47h-2.98c-0.81,0-1.49-0.23-2.04-0.69
			c-0.55-0.46-0.83-1.02-0.83-1.68c0-0.44,1.23-3.57,3.7-9.38c0.66-1.62,1.28-3.06,1.85-4.33c0.57-1.27,1.04-2.36,1.41-3.28
			l0.99-2.32l2.32-5.47c0.99-2.24,2.12-4.86,3.37-7.84l1.77-3.97c0.4-1.1,0.72-1.84,0.94-2.21c0.66-1.18,1.66-1.77,2.98-1.77h3.09
			C98.17,209.55,99.16,210.16,99.79,211.37z M95.32,222.3l-4.31,10.1h8.5L95.32,222.3z"/>
		<path class="st0" d="M124.08,252.5c-0.88,0-1.6-0.27-2.15-0.8c-0.55-0.53-0.83-1.13-0.83-1.79v-37.82c0-0.7,0.28-1.31,0.83-1.82
			c0.55-0.51,1.29-0.77,2.21-0.77h10.82c3.02,0,5.69,0.45,8.03,1.35c2.34,0.9,4.17,2.24,5.49,4c1.32,1.77,1.99,3.88,1.99,6.35
			c0,1.4-0.28,2.73-0.83,4c-0.55,1.27-1.38,2.4-2.48,3.39c1.95,1.21,3.4,2.74,4.36,4.58c0.96,1.84,1.43,3.81,1.43,5.91
			c0,2.5-0.61,4.78-1.82,6.82c-1.21,2.04-2.99,3.65-5.33,4.83c-2.34,1.18-5.11,1.77-8.31,1.77H124.08z M130.04,217.11v8.72h5.69
			c1.95,0,3.4-0.37,4.36-1.1c0.96-0.74,1.43-1.89,1.43-3.48c0-2.76-2.13-4.14-6.4-4.14H130.04z M130.04,244.88h7.07
			c2.17,0,3.85-0.52,5.05-1.55c1.2-1.03,1.79-2.45,1.79-4.25c0-1.84-0.53-3.35-1.6-4.53s-2.65-1.77-4.75-1.77h-7.56V244.88z"/>
	</g>
	<g>
		<path class="st1" d="M93.72,169.63c-0.28,7.18-6.17,12.93-13.42,12.93c-5.62,0-10.44-3.46-12.44-8.36L93.72,169.63z M58.06,153.34
			l30.12-5.38c2.22-0.4,3.7-2.52,3.3-4.74c-0.4-2.22-2.51-3.69-4.74-3.3l-30.12,5.38c-2.22,0.4-3.7,2.52-3.3,4.74
			c0.35,1.98,2.08,3.37,4.02,3.37C57.58,153.4,57.82,153.38,58.06,153.34z M58.05,168.75l44.42-7.85c2.22-0.39,3.7-2.51,3.31-4.73
			c-0.39-2.22-2.52-3.7-4.73-3.31l-44.42,7.85c-2.22,0.39-3.7,2.51-3.31,4.73c0.35,1.98,2.07,3.38,4.02,3.38
			C57.57,168.82,57.81,168.8,58.05,168.75z"/>
		<path class="st2" d="M132.38,66.21c0.06-1.02,0.1-2.04,0.1-3.05c0-13.27-5.04-25.43-13.32-34.76c0.87-1.88,1.36-3.95,1.36-6.15
			c0-8.13-6.62-14.75-14.75-14.75c-4.44,0-8.41,1.98-11.12,5.09c-5.02-1.56-10.34-2.41-15.87-2.45c-0.22-0.01-0.4-0.01-0.69,0
			c-15.27,0.1-29.06,6.49-38.84,16.64c-1.55-0.55-3.21-0.87-4.94-0.87c-8.13,0-14.75,6.62-14.75,14.75c0,4.85,2.36,9.14,5.98,11.83
			c-0.72,3.45-1.11,7.02-1.11,10.67c0,7.2,1.46,14.75,4.13,22.04c-3.02,2.7-4.94,6.62-4.94,10.98c0,8.13,6.62,14.75,14.75,14.75
			c1.57,0,3.08-0.25,4.49-0.71c1.53,2.58,3.6,6.1,5.74,9.79c1.3,2.25,4.17,8.78,4.9,13.69c0.3,2.03,2.04,3.49,4.04,3.48
			c0.2,0,0.4-0.01,0.61-0.04c2.23-0.33,3.77-2.41,3.44-4.64c-0.96-6.48-4.4-13.97-5.91-16.58c-1.66-2.87-3.28-5.63-4.64-7.93
			l48.04,26.94v4.51c0,2.26,1.83,4.08,4.08,4.08c2.26,0,4.08-1.83,4.08-4.08v-6.9c0-1.48-0.8-2.84-2.09-3.56L52.72,99.57
			c0.16-0.67,0.28-1.35,0.34-2.05l59.5-11.47c0.98,1.9,2.35,3.56,4.01,4.87c-1.95,3.62-4.22,7.17-6.82,10.58
			c-0.24,0.32-0.52,0.67-0.81,1.04c-2.17,2.78-5.45,6.98-7.21,12.12c-0.73,2.13,0.41,4.46,2.54,5.19c2.13,0.73,4.46-0.41,5.19-2.54
			c1.32-3.84,3.98-7.25,5.92-9.73c0.32-0.4,0.61-0.78,0.87-1.12c3.04-3.99,5.68-8.17,7.92-12.44c0.5,0.05,1,0.08,1.51,0.08
			c8.13,0,14.75-6.62,14.75-14.75C140.43,73.61,137.15,68.65,132.38,66.21z M105.77,15.67c3.63,0,6.58,2.95,6.58,6.58
			s-2.95,6.58-6.58,6.58c-3.63,0-6.58-2.95-6.58-6.58S102.14,15.67,105.77,15.67z M78.16,18.31l0.33-0.01l0.28,0.01
			c4.31,0.03,8.48,0.66,12.43,1.78c-0.1,0.67-0.16,1.35-0.17,2.04L47.04,33.24c-0.33-0.57-0.7-1.11-1.11-1.63
			C54.19,23.47,65.59,18.39,78.16,18.31z M27.74,40.66c0-3.63,2.95-6.58,6.58-6.58c3.63,0,6.58,2.95,6.58,6.58
			c0,3.63-2.95,6.58-6.58,6.58C30.69,47.24,27.74,44.29,27.74,40.66z M38.38,102.76c-3.63,0-6.58-2.95-6.58-6.58
			c0-3.63,2.95-6.58,6.58-6.58c3.63,0,6.58,2.95,6.58,6.58C44.96,99.81,42.01,102.76,38.38,102.76z M111,78.03L51.51,89.49
			c-2.44-4.78-7.41-8.07-13.13-8.07c-0.83,0-1.63,0.09-2.42,0.22c-2.17-6.14-3.36-12.46-3.36-18.49c0-2.66,0.25-5.26,0.71-7.8
			c0.33,0.02,0.66,0.05,1,0.05c4.63,0,8.76-2.14,11.46-5.49l65.27,27.61C111.03,77.69,111.01,77.86,111,78.03z M114.26,70.02
			L48.96,42.4c0.05-0.41,0.07-0.82,0.09-1.24L93.24,30c2.6,4.2,7.24,7.01,12.53,7.01c2.95,0,5.69-0.88,8-2.38
			c6.58,7.77,10.54,17.72,10.54,28.53c0,0.49-0.02,0.99-0.04,1.49C120.25,65.04,116.69,67.04,114.26,70.02z M125.68,85.91
			c-3.63,0-6.58-2.95-6.58-6.58c0-3.63,2.95-6.58,6.58-6.58c3.63,0,6.58,2.95,6.58,6.58C132.26,82.96,129.31,85.91,125.68,85.91z"/>
	</g>
</g>
</svg>
