<?xml version="1.0" encoding="utf-8"?>
<!-- Generator: Adobe Illustrator 24.0.0, SVG Export Plug-In . SVG Version: 6.00 Build 0)  -->
<svg version="1.1" id="Layer_1" xmlns="http://www.w3.org/2000/svg" xmlns:xlink="http://www.w3.org/1999/xlink" x="0px" y="0px"
	 viewBox="0 0 160 260" style="enable-background:new 0 0 160 260;" xml:space="preserve">
<style type="text/css">
	.st0{fill:#FFFFFF;}
</style>
<g>
	<g>
		<path class="st0" d="M10,252.5c-0.9,0-1.6-0.3-2.1-0.8C7.3,251.2,7,250.6,7,250v-37.9c0-0.7,0.3-1.3,0.8-1.8s1.2-0.8,2.1-0.8h3
			c0.9,0,1.6,0.3,2.2,0.8c0.6,0.5,0.9,1.1,0.9,1.8V250c0,0.7-0.3,1.3-0.8,1.8s-1.3,0.8-2.2,0.8H10z"/>
		<path class="st0" d="M25.4,237.9c-0.9,0-1.6-0.3-2.1-0.8s-0.8-1.1-0.8-1.8v-2.6c0-0.7,0.3-1.3,0.8-1.8s1.3-0.8,2.1-0.8h15.5
			c0.9,0,1.6,0.3,2.2,0.8c0.5,0.5,0.8,1.1,0.8,1.8v2.6c0,0.7-0.3,1.3-0.8,1.8c-0.5,0.5-1.3,0.8-2.2,0.8H25.4z"/>
		<path class="st0" d="M53.4,252.5c-0.8,0-1.6-0.3-2.1-0.8c-0.6-0.5-0.9-1.1-0.9-1.8v-37.9c0-0.7,0.3-1.3,0.8-1.8s1.2-0.8,2.1-0.8h3
			c0.9,0,1.6,0.3,2.2,0.8s0.9,1.1,0.9,1.8v32.8h12.1c0.9,0,1.6,0.3,2.2,0.8c0.6,0.5,0.8,1.1,0.8,1.8v2.5c0,0.7-0.3,1.3-0.8,1.8
			s-1.3,0.8-2.1,0.8L53.4,252.5L53.4,252.5z"/>
		<path class="st0" d="M99.8,211.4c0.2,0.4,0.5,1.1,0.9,2.1l2,4.6l9.8,22.9l2,4.6c1.1,2.8,1.7,4.3,1.7,4.5c0,0.7-0.3,1.2-0.8,1.7
			c-0.5,0.5-1.2,0.7-2.1,0.7h-3c-0.6,0-1.2-0.2-1.7-0.5s-0.9-0.7-1.1-1.2l-4.6-10.8h-15l-4.6,10.8c-0.2,0.5-0.6,0.9-1.1,1.2
			c-0.5,0.3-1.1,0.5-1.8,0.5h-3c-0.8,0-1.5-0.2-2-0.7s-0.8-1-0.8-1.7c0-0.4,1.2-3.6,3.7-9.4c0.7-1.6,1.3-3.1,1.8-4.3s1-2.4,1.4-3.3
			l1-2.3l2.3-5.5c1-2.2,2.1-4.9,3.4-7.8l1.8-4c0.4-1.1,0.7-1.8,0.9-2.2c0.7-1.2,1.7-1.8,3-1.8h3.1C98.2,209.6,99.2,210.2,99.8,211.4
			z M95.3,222.3L91,232.4h8.5L95.3,222.3z"/>
		<path class="st0" d="M124.1,252.5c-0.9,0-1.6-0.3-2.2-0.8s-0.8-1.1-0.8-1.8v-37.8c0-0.7,0.3-1.3,0.8-1.8c0.6-0.5,1.3-0.8,2.2-0.8
			H135c3,0,5.7,0.4,8,1.4c2.3,0.9,4.2,2.2,5.5,4c1.3,1.8,2,3.9,2,6.4c0,1.4-0.3,2.7-0.8,4s-1.4,2.4-2.5,3.4c1.9,1.2,3.4,2.7,4.4,4.6
			s1.4,3.8,1.4,5.9c0,2.5-0.6,4.8-1.8,6.8c-1.2,2-3,3.6-5.3,4.8c-2.3,1.2-5.1,1.8-8.3,1.8L124.1,252.5L124.1,252.5z M130,217.1v8.7
			h5.7c1.9,0,3.4-0.4,4.4-1.1c1-0.7,1.4-1.9,1.4-3.5c0-2.8-2.1-4.1-6.4-4.1H130z M130,244.9h7.1c2.2,0,3.9-0.5,5.1-1.6
			s1.8-2.4,1.8-4.3c0-1.8-0.5-3.4-1.6-4.5s-2.6-1.8-4.8-1.8H130V244.9z"/>
	</g>
	<g>
		<path class="st0" d="M93.7,169.6c-0.3,7.2-6.2,12.9-13.4,12.9c-5.6,0-10.4-3.5-12.4-8.4L93.7,169.6z M58.1,153.3l30.1-5.4
			c2.2-0.4,3.7-2.5,3.3-4.7c-0.4-2.2-2.5-3.7-4.7-3.3l-30.1,5.4c-2.2,0.4-3.7,2.5-3.3,4.7c0.3,2,2.1,3.4,4,3.4
			C57.6,153.4,57.8,153.4,58.1,153.3z M58,168.8l44.4-7.9c2.2-0.4,3.7-2.5,3.3-4.7s-2.5-3.7-4.7-3.3l-44.4,7.9
			c-2.2,0.4-3.7,2.5-3.3,4.7c0.3,2,2.1,3.4,4,3.4C57.6,168.8,57.8,168.8,58,168.8z"/>
		<path class="st0" d="M132.4,66.2c0.1-1,0.1-2,0.1-3c0-13.3-5-25.4-13.3-34.8c0.9-1.9,1.4-4,1.4-6.1c0-8.1-6.6-14.8-14.8-14.8
			c-4.4,0-8.4,2-11.1,5.1c-5-1.6-10.3-2.4-15.9-2.4c-0.2,0-0.4,0-0.7,0C62.8,10.2,49,16.6,39.3,26.8c-1.5-0.5-3.2-0.9-4.9-0.9
			c-8.1,0-14.8,6.6-14.8,14.8c0,4.8,2.4,9.1,6,11.8c-0.7,3.5-1.1,7-1.1,10.7c0,7.2,1.5,14.8,4.1,22c-3,2.7-4.9,6.6-4.9,11
			c0,8.1,6.6,14.8,14.7,14.8c1.6,0,3.1-0.3,4.5-0.7c1.5,2.6,3.6,6.1,5.7,9.8c1.3,2.3,4.2,8.8,4.9,13.7c0.3,2,2,3.5,4,3.5
			c0.2,0,0.4,0,0.6,0c2.2-0.3,3.8-2.4,3.4-4.6c-1-6.5-4.4-14-5.9-16.6c-1.7-2.9-3.3-5.6-4.6-7.9l48,26.9v4.5c0,2.3,1.8,4.1,4.1,4.1
			c2.3,0,4.1-1.8,4.1-4.1v-6.9c0-1.5-0.8-2.8-2.1-3.6L52.7,99.6c0.2-0.7,0.3-1.3,0.3-2.1L112.6,86c1,1.9,2.3,3.6,4,4.9
			c-1.9,3.6-4.2,7.2-6.8,10.6c-0.2,0.3-0.5,0.7-0.8,1c-2.2,2.8-5.4,7-7.2,12.1c-0.7,2.1,0.4,4.5,2.5,5.2s4.5-0.4,5.2-2.5
			c1.3-3.8,4-7.3,5.9-9.7c0.3-0.4,0.6-0.8,0.9-1.1c3-4,5.7-8.2,7.9-12.4c0.5,0.1,1,0.1,1.5,0.1c8.1,0,14.8-6.6,14.8-14.8
			C140.4,73.6,137.1,68.7,132.4,66.2z M105.8,15.7c3.6,0,6.6,3,6.6,6.6s-2.9,6.6-6.6,6.6c-3.6,0-6.6-3-6.6-6.6
			S102.1,15.7,105.8,15.7z M78.2,18.3l0.3,0l0.3,0c4.3,0,8.5,0.7,12.4,1.8c-0.1,0.7-0.2,1.4-0.2,2L47,33.2c-0.3-0.6-0.7-1.1-1.1-1.6
			C54.2,23.5,65.6,18.4,78.2,18.3z M27.7,40.7c0-3.6,3-6.6,6.6-6.6s6.6,3,6.6,6.6s-3,6.6-6.6,6.6C30.7,47.2,27.7,44.3,27.7,40.7z
			 M38.4,102.8c-3.6,0-6.6-2.9-6.6-6.6c0-3.6,2.9-6.6,6.6-6.6s6.6,2.9,6.6,6.6C45,99.8,42,102.8,38.4,102.8z M111,78L51.5,89.5
			c-2.4-4.8-7.4-8.1-13.1-8.1c-0.8,0-1.6,0.1-2.4,0.2c-2.2-6.1-3.4-12.5-3.4-18.5c0-2.7,0.3-5.3,0.7-7.8c0.3,0,0.7,0,1,0
			c4.6,0,8.8-2.1,11.5-5.5L111,77.5C111,77.7,111,77.9,111,78z M114.3,70L49,42.4c0-0.4,0.1-0.8,0.1-1.2L93.2,30
			c2.6,4.2,7.2,7,12.5,7c2.9,0,5.7-0.9,8-2.4c6.6,7.8,10.5,17.7,10.5,28.5c0,0.5,0,1,0,1.5C120.3,65,116.7,67,114.3,70z M125.7,85.9
			c-3.6,0-6.6-2.9-6.6-6.6c0-3.6,2.9-6.6,6.6-6.6c3.6,0,6.6,2.9,6.6,6.6C132.3,83,129.3,85.9,125.7,85.9z"/>
	</g>
</g>
</svg>
