<svg id="password" xmlns="http://www.w3.org/2000/svg" width="21.19" height="24.217" viewBox="0 0 21.19 24.217">
  <g id="Group_299" data-name="Group 299" transform="translate(0)">
    <g id="Group_298" data-name="Group 298">
      <ellipse id="Ellipse_30" data-name="Ellipse 30" cx="0.946" cy="0.946" rx="0.946" ry="0.946" transform="translate(15.041 15.42)" fill="#3b1d9d"/>
      <path id="Path_280" data-name="Path 280" d="M52.244,17.122a.946.946,0,0,0,.946-.946v-3.5a3.788,3.788,0,0,0-3.784-3.784H48.269V5.556a5.677,5.677,0,0,0-11.352,0V8.892H35.784A3.788,3.788,0,0,0,32,12.676v7.757a3.788,3.788,0,0,0,3.784,3.784H49.406a3.788,3.788,0,0,0,3.784-3.784.946.946,0,0,0-1.892,0,1.894,1.894,0,0,1-1.892,1.892H35.784a1.894,1.894,0,0,1-1.892-1.892V12.676a1.894,1.894,0,0,1,1.892-1.892H49.406A1.894,1.894,0,0,1,51.3,12.676v3.5A.946.946,0,0,0,52.244,17.122Zm-5.867-8.23H38.809V5.556a3.786,3.786,0,0,1,7.568,0Z" transform="translate(-32)" fill="#3b1d9d"/>
      <ellipse id="Ellipse_31" data-name="Ellipse 31" cx="0.946" cy="0.946" rx="0.946" ry="0.946" transform="translate(7.899 15.42)" fill="#3b1d9d"/>
      <ellipse id="Ellipse_32" data-name="Ellipse 32" cx="0.946" cy="0.946" rx="0.946" ry="0.946" transform="translate(4.352 15.42)" fill="#3b1d9d"/>
      <ellipse id="Ellipse_33" data-name="Ellipse 33" cx="0.946" cy="0.946" rx="0.946" ry="0.946" transform="translate(11.447 15.42)" fill="#3b1d9d"/>
    </g>
  </g>
</svg>
