<?xml version="1.0" encoding="utf-8"?>
<!-- Generator: Adobe Illustrator 24.0.0, SVG Export Plug-In . SVG Version: 6.00 Build 0)  -->
<svg version="1.1" id="Layer_1" xmlns="http://www.w3.org/2000/svg" xmlns:xlink="http://www.w3.org/1999/xlink" x="0px" y="0px"
	 viewBox="0 0 74.6 74.6" style="enable-background:new 0 0 74.6 74.6;" xml:space="preserve">
<style type="text/css">
	.st0{opacity:0.45;}
	.st1{fill:#FFFFFF;}
	.st2{fill:none;stroke:#FFFFFF;stroke-width:0.25;}
</style>
<g id="noun_submitted_document_1595404" transform="translate(-1.75 -1.75)" class="st0">
	<g id="Layer_1_1_" transform="translate(2 2)">
		<g id="Path_1137" transform="translate(-2 -2)">
			<path class="st1" d="M74.9,76.3H25.5c-0.8,0-1.4-0.6-1.4-1.4V61.4h-3.2c-3.8,0-7.3-1.8-9.5-4.9c-1.7-2.3-4.4-3.8-7.3-3.8H2H1.9
				v-0.1v-2.5v-0.1H2l2.1,0c3.8,0,7.3,1.8,9.5,4.9c1.7,2.3,4.4,3.8,7.3,3.8h3.2V36.1c-0.9,1.6-2.2,3-3.8,3.9
				c-1.7,1.1-3.7,1.6-5.7,1.6l0,0h-2.7h-0.1v-0.1v-2.5v-0.1h0.1h2.7l0,0c3.2,0,6-1.8,7.4-4.6l1-2.1c0.2-0.5,0.7-0.8,1.2-0.8
				c0.1,0,0.2,0,0.4,0l14,3.7c0.2,0.1,0.4,0.1,0.6,0.1c0.5,0,1-0.2,1.3-0.5c0.7-0.5,1-1.4,0.8-2.2c-0.2-0.8-0.8-1.5-1.6-1.7
				l-15.7-4.2h-4.9c-2.7,0-5.2,1.2-6.9,3.2c-2.2,2.7-5.5,4.2-8.9,4.2l0,0H2H1.9v-0.1v-2.5v-0.1H2h1.4c2.7,0,5.2-1.2,6.9-3.2
				c2.2-2.7,5.5-4.2,8.9-4.2l0,0h4.9V3.2c0-0.8,0.6-1.4,1.4-1.4h49.4c0.8,0,1.4,0.6,1.4,1.4v71.7C76.3,75.6,75.6,76.3,74.9,76.3z
				 M26.8,73.5h46.7V4.6H26.8v20.2l13.6,3.6c2.2,0.6,3.7,2.5,3.7,4.8c0,1.5-0.7,3-1.9,3.9c-0.9,0.7-1.9,1-3,1
				c-0.4,0-0.9-0.1-1.3-0.2l-11.1-3V73.5z"/>
			<path class="st1" d="M25.5,2c-0.7,0-1.2,0.6-1.2,1.2v21h-5.1c0,0,0,0,0,0c-3.4,0-6.7,1.5-8.8,4.2c-1.7,2.1-4.3,3.3-7,3.3H2v2.5
				h1.4c0,0,0,0,0,0c3.4,0,6.7-1.5,8.8-4.2c1.7-2.1,4.3-3.3,7-3.3c0,0,0,0,0,0h4.9l15.7,4.2c0.9,0.2,1.5,0.9,1.7,1.8
				c0.2,0.9-0.2,1.8-0.9,2.3c-0.4,0.3-0.9,0.5-1.4,0.5c-0.2,0-0.4,0-0.6-0.1l-14-3.7c-0.1,0-0.2,0-0.3,0c-0.5,0-0.9,0.3-1.1,0.7
				l-1,2.1c-1.4,2.9-4.3,4.7-7.5,4.7c0,0,0,0,0,0h-2.7v2.5h2.7c0,0,0,0,0,0c4.1,0,7.8-2.3,9.7-5.9v23.2h-3.3c-2.9,0-5.7-1.4-7.4-3.8
				c-2.2-3-5.7-4.8-9.4-4.8l-2.1,0v2.5h2.1c2.9,0,5.7,1.4,7.4,3.8c2.2,3,5.7,4.8,9.4,4.8h3.3v13.6c0,0.7,0.6,1.2,1.2,1.2h49.4
				c0.7,0,1.2-0.6,1.2-1.2V3.2c0-0.7-0.6-1.2-1.2-1.2H25.5 M73.7,73.7H26.7V34.8l11.2,3c0.4,0.1,0.8,0.2,1.2,0.2
				c1.1,0,2.1-0.3,2.9-1c1.2-0.9,1.9-2.3,1.9-3.8c0-2.2-1.5-4.1-3.6-4.7l-13.7-3.7V4.5h46.9V73.7 M25.5,1.7h49.4
				c0.8,0,1.5,0.7,1.5,1.5v71.7c0,0.8-0.7,1.5-1.5,1.5H25.5c-0.8,0-1.5-0.7-1.5-1.5V61.6h-3.1c-3.8,0-7.4-1.9-9.6-4.9
				c-1.7-2.3-4.3-3.7-7.2-3.7H2H1.7v-0.3v-2.5v-0.3H2l2.1,0c3.8,0,7.4,1.9,9.6,4.9c1.7,2.3,4.3,3.7,7.2,3.7H24v-22
				c-0.9,1.5-2.1,2.7-3.6,3.6c-1.7,1.1-3.7,1.6-5.8,1.6l0,0h-2.7h-0.3v-0.3v-2.5v-0.3h0.3h2.7l0,0c3.1,0,5.9-1.7,7.3-4.5l1-2.1
				c0.3-0.5,0.8-0.8,1.3-0.8c0.1,0,0.3,0,0.4,0.1l14,3.7c0.2,0,0.4,0.1,0.5,0.1c0.5,0,0.9-0.2,1.3-0.4c0.6-0.5,0.9-1.3,0.8-2.1
				c-0.2-0.8-0.7-1.4-1.5-1.6L24,27h-4.9c-2.6,0-5.1,1.2-6.8,3.2c-2.2,2.7-5.5,4.2-9,4.2l0,0H2H1.7v-0.3v-2.5v-0.3H2h1.4
				c2.6,0,5.1-1.2,6.8-3.2c2.2-2.7,5.5-4.2,9-4.2l0,0H24V3.2C24,2.4,24.7,1.7,25.5,1.7z M73.4,4.7H27v19.9l13.5,3.6
				c2.2,0.6,3.8,2.6,3.8,4.9c0,1.6-0.7,3.1-2,4c-0.9,0.7-2,1.1-3.1,1.1c-0.4,0-0.9-0.1-1.3-0.2L27,35.1v38.3h46.4V4.7z"/>
		</g>
		<g id="Rectangle_390" transform="translate(37.242 4.59)">
			<rect x="0" y="0" class="st1" width="22.1" height="3.9"/>
			<rect x="-0.1" y="-0.1" class="st2" width="22.3" height="4.1"/>
		</g>
		<g id="Rectangle_391" transform="translate(37.242 20.183)">
			<rect x="0" y="0" class="st1" width="7.8" height="5.2"/>
			<rect x="-0.1" y="-0.1" class="st2" width="8" height="5.4"/>
		</g>
		<g id="Rectangle_392" transform="translate(46.338 20.183)">
			<rect x="0" y="0" class="st1" width="11.7" height="5.2"/>
			<rect x="-0.1" y="-0.1" class="st2" width="11.9" height="5.4"/>
		</g>
		<g id="Rectangle_393" transform="translate(45.038 27.98)">
			<polygon class="st1" points="0,0 9.1,0 9.1,0 			"/>
			<rect x="-0.1" y="-0.1" class="st2" width="9.3" height="0.3"/>
		</g>
		<g id="Rectangle_394" transform="translate(45.038 31.879)">
			<rect x="0" y="0" class="st1" width="23.4" height="3.9"/>
			<rect x="-0.1" y="-0.1" class="st2" width="23.6" height="4.1"/>
		</g>
		<g id="Rectangle_395" transform="translate(32.044 40.975)">
			<rect x="0" y="0" class="st1" width="36.4" height="1.3"/>
			<rect x="-0.1" y="-0.1" class="st2" width="36.6" height="1.5"/>
		</g>
		<g id="Rectangle_396" transform="translate(60.632 20.183)">
			<rect x="0" y="0" class="st1" width="7.8" height="5.2"/>
			<rect x="-0.1" y="-0.1" class="st2" width="8" height="5.4"/>
		</g>
		<g id="Rectangle_397" transform="translate(58.033 27.98)">
			<polygon class="st1" points="0,0 10.4,0 10.4,0 			"/>
			<rect x="-0.1" y="-0.1" class="st2" width="10.6" height="0.3"/>
		</g>
		<g id="Rectangle_398" transform="translate(32.044 44.873)">
			<rect x="0" y="0" class="st1" width="22.1" height="1.3"/>
			<rect x="-0.1" y="-0.1" class="st2" width="22.3" height="1.5"/>
		</g>
		<g id="Rectangle_399" transform="translate(32.044 50.071)">
			<rect x="0" y="0" class="st1" width="36.4" height="6.5"/>
			<rect x="-0.1" y="-0.1" class="st2" width="36.6" height="6.7"/>
		</g>
		<g id="Rectangle_400" transform="translate(32.044 60.467)">
			<polygon class="st1" points="0,0 7.8,0 7.8,0 			"/>
			<rect x="-0.1" y="-0.1" class="st2" width="8" height="0.3"/>
		</g>
		<g id="Rectangle_401" transform="translate(41.14 60.467)">
			<polygon class="st1" points="0,0 27.3,0 27.3,0 			"/>
			<rect x="-0.1" y="-0.1" class="st2" width="27.5" height="0.3"/>
		</g>
		<g id="Rectangle_402" transform="translate(58.033 44.873)">
			<rect x="0" y="0" class="st1" width="10.4" height="1.3"/>
			<rect x="-0.1" y="-0.1" class="st2" width="10.6" height="1.5"/>
		</g>
		<g id="Rectangle_403" transform="translate(32.044 16.285)">
			<rect x="0" y="0" class="st1" width="36.4" height="1.3"/>
			<rect x="-0.1" y="-0.1" class="st2" width="36.6" height="1.5"/>
		</g>
	</g>
</g>
</svg>
