<svg id="user" xmlns="http://www.w3.org/2000/svg" width="24.217" height="24.217" viewBox="0 0 24.217 24.217">
  <g id="Group_300" data-name="Group 300" transform="translate(0)">
    <path id="Path_281" data-name="Path 281" d="M20.671,15.655a12.062,12.062,0,0,0-4.6-2.886,7,7,0,1,0-7.922,0A12.128,12.128,0,0,0,0,24.217H1.892a10.217,10.217,0,0,1,20.433,0h1.892A12.03,12.03,0,0,0,20.671,15.655Zm-8.562-3.547A5.108,5.108,0,1,1,17.217,7,5.114,5.114,0,0,1,12.109,12.109Z" transform="translate(0 0)" fill="#3b1d9d"/>
  </g>
</svg>
