<svg id="Group_885" data-name="Group 885" xmlns="http://www.w3.org/2000/svg" width="22.424" height="18.457" viewBox="0 0 22.424 18.457">
  <path id="Path_1220" data-name="Path 1220" d="M54.086,10.9H42.308a.71.71,0,0,0-.708.708v5.145h1.416V12.316H53.4V22.347H43.016V20.978a1.8,1.8,0,0,1-.5.071H41.6v1.983a.71.71,0,0,0,.708.708H47.5V25.7l-2.455,2.455a.7.7,0,0,0,.991.991L48.185,27l2.148,2.148a.72.72,0,0,0,.5.212.708.708,0,0,0,.5-1.2l-2.431-2.431V23.74h5.193a.71.71,0,0,0,.708-.708V11.608A.7.7,0,0,0,54.086,10.9Z" transform="translate(-32.369 -10.9)" fill="#8c29ff"/>
  <path id="Path_1221" data-name="Path 1221" d="M12.973,42.5,13.4,41.4a.367.367,0,0,0-.33-.5H5.231A2.451,2.451,0,0,0,2.8,43.071l-.307,2.974a.57.57,0,0,0,.448.614c.33.071.755.118,1.18.165l.283,4.721a.752.752,0,0,0,.755.708H7.45a.752.752,0,0,0,.755-.708l.4-8.1a.735.735,0,0,1,.732-.732h3.3A.306.306,0,0,0,12.973,42.5Z" transform="translate(-2.492 -33.819)" fill="#8c29ff"/>
  <circle id="Ellipse_104" data-name="Ellipse 104" cx="2.478" cy="2.478" r="2.478" transform="translate(1.324 1.44)" fill="#8c29ff"/>
  <path id="Path_1222" data-name="Path 1222" d="M58.454,29.641h4.7a.363.363,0,0,0,.354-.354V28.154a.363.363,0,0,0-.354-.354h-4.7a.363.363,0,0,0-.354.354v1.133A.363.363,0,0,0,58.454,29.641Z" transform="translate(-44.975 -23.811)" fill="#8c29ff"/>
  <path id="Path_1223" data-name="Path 1223" d="M58.1,42.187a.363.363,0,0,0,.354.354h4.7a.363.363,0,0,0,.354-.354V41.054a.363.363,0,0,0-.354-.354h-4.7a.363.363,0,0,0-.354.354Z" transform="translate(-44.975 -33.666)" fill="#8c29ff"/>
</svg>
