<svg xmlns="http://www.w3.org/2000/svg" width="20.688" height="25.013" viewBox="0 0 20.688 25.013">
  <path id="Path_1143" data-name="Path 1143" d="M2.884.9V6.335H.9A.906.906,0,0,0,0,7.24V22.629A1.874,1.874,0,0,0,1.875,24.5h17.41a.9.9,0,0,0,.9-.9V.9a.906.906,0,0,0-.9-.906H3.787A.906.906,0,0,0,2.884.9ZM.865,22.629V7.2H2.884V22.629a1.009,1.009,0,1,1-2.019,0Zm18.457,1.009H3.461a1.857,1.857,0,0,0,.288-1.009V.855H19.322ZM6.861,8.789a.643.643,0,0,1-.369-.121.626.626,0,0,1-.248-.614l.248-1.442L5.439,5.588a.634.634,0,0,1-.159-.643.626.626,0,0,1,.5-.427l1.456-.211L7.89,2.989a.629.629,0,0,1,1.125,0l.649,1.318,1.442.211a.626.626,0,0,1,.508.427.634.634,0,0,1-.159.643L10.4,6.612l.248,1.442a.623.623,0,0,1-.908.658L8.453,8.03l-1.3.683A.627.627,0,0,1,6.861,8.789Zm1.592-1.73,1.275.672L9.485,6.3l1.03-1.006L9.09,5.086,8.453,3.8,7.815,5.092,6.391,5.3l1.03,1L7.178,7.719ZM17.592,6.3H12.978V5.435h4.614Zm0,2.555H12.978V7.99h4.614Zm0-5.11H12.978V2.88h4.614Zm0,7.66H5.479v-.865H17.592Zm0,2.552H5.479v-.865H17.592Zm0,2.555H5.479v-.865H17.592Zm0,2.555H5.479V18.2H17.592Zm0,2.552H5.479v-.865H17.592Z" transform="translate(0.25 0.26)" fill="#8e17ff" stroke="#8e17ff" stroke-width="0.5"/>
</svg>
