<svg xmlns="http://www.w3.org/2000/svg" width="22.424" height="21.063" viewBox="0 0 22.424 21.063">
  <path id="Path_1224" data-name="Path 1224" d="M58.046,47.853,48.029,39.291a1.216,1.216,0,0,0-1.558,0l-3.75,3.2V40.2a1.2,1.2,0,1,0-2.4,0v4.35L36.47,47.853a1.2,1.2,0,1,0,1.558,1.832l.257-.205v9.384a1.191,1.191,0,0,0,1.2,1.2h5.309a1.191,1.191,0,0,0,1.2-1.2V50.987a.184.184,0,0,1,.171-.171h2.226a.184.184,0,0,1,.171.171v7.877a1.191,1.191,0,0,0,1.2,1.2h5.309a1.191,1.191,0,0,0,1.2-1.2v-9.4l.257.205a1.2,1.2,0,0,0,.771.291,1.15,1.15,0,0,0,.908-.428A1.2,1.2,0,0,0,58.046,47.853Zm-4.2,9.812H50.94V50.987a2.565,2.565,0,0,0-2.569-2.569H46.145a2.565,2.565,0,0,0-2.569,2.569v6.679H40.665V47.408l6.593-5.634,6.593,5.634Z" transform="translate(-36.05 -39)" fill="#8c29ff"/>
</svg>
