<svg id="Group_884" data-name="Group 884" xmlns="http://www.w3.org/2000/svg" width="22.424" height="22.426" viewBox="0 0 22.424 22.426">
  <path id="Path_1218" data-name="Path 1218" d="M6.723,18.546c-.582-.032-1.168-.012-1.752-.015a1.018,1.018,0,0,1-1.133-1.144V4.945A1.013,1.013,0,0,1,4.96,3.813c.561,0,1.122.013,1.682-.007A1.917,1.917,0,0,0,6.593-.027c-.631-.011-1.261-.012-1.892,0A4.829,4.829,0,0,0,.117,3.714c-.044.2-.078.394-.117.591V18.038c.017.075.039.149.049.226a4.8,4.8,0,0,0,4.185,4.069,18.807,18.807,0,0,0,2.519.033,1.773,1.773,0,0,0,1.522-1.017A1.912,1.912,0,0,0,6.723,18.546Z" transform="translate(0 0.035)" fill="#8c29ff"/>
  <path id="Path_1219" data-name="Path 1219" d="M140.231,84.9a1.819,1.819,0,0,0-1.305-.537,1.941,1.941,0,0,0-1.8,1.162,1.89,1.89,0,0,0,.4,2.094c.807.823,1.621,1.644,2.433,2.463.057.057.108.134.194.222h-.419c-2.584,0-5.171-.011-7.757,0a1.909,1.909,0,0,0-1.906,2.357,1.949,1.949,0,0,0,1.942,1.467c2.609,0,5.218-.009,7.827-.009h.268a.9.9,0,0,0,.067.106,1.045,1.045,0,0,0-.219.131c-.774.768-1.551,1.533-2.312,2.314a1.915,1.915,0,0,0,2.7,2.715q2.945-2.916,5.861-5.862a1.86,1.86,0,0,0,0-2.631l0,0Q143.227,87.877,140.231,84.9Z" transform="translate(-124.326 -80.662)" fill="#8c29ff"/>
</svg>
